<svg width="164" height="25" viewBox="0 0 164 25" fill="none" xmlns="http://www.w3.org/2000/svg">
<path d="M12.0327 24.9992C5.22567 24.9992 0 20.3335 0 12.5684C0 4.73478 5.26 0 12.1533 0C16.6225 0 20.4558 1.96274 22.5525 5.6815L19.5272 7.29984C17.9973 4.44186 15.2642 3.11617 12.1529 3.11617C7.23679 3.11617 3.43793 6.45625 3.43793 12.4997C3.43793 18.4567 7.15089 21.9176 12.2732 21.9176C16.3987 21.9176 19.6303 19.5934 20.1976 14.9793H12.2561V12.1213H23.5152V24.672H20.7305V20.299C19.1318 23.2775 16.1238 24.9992 12.0327 24.9992ZM48.0405 3.40954H38.311V10.9849H46.8885V14.0495H38.311V21.5733H48.0405V24.6723H34.8214V0.328013H48.0405V3.40954ZM84.9931 24.6721H81.6412L80.0426 4.87283L72.5308 24.6721H70.4508L62.9906 4.94158L61.3576 24.6721H57.9885L59.8621 0.327837H64.4861L71.4821 18.7326L78.5126 0.327837H83.1366L84.9931 24.6721ZM96.5402 24.6721V0.327837H99.9609V24.6721H96.5402ZM128.835 0.327837H132.239V24.6721H128.543L115.84 5.35501V24.6721H112.453V0.327837H116.115L128.835 19.5585L128.835 0.327837ZM160.442 24.6721L158.413 18.9906H147.549L145.521 24.6721H141.963L150.919 0.327837H155.044L164 24.6721H160.442ZM148.616 15.9948H157.348L152.982 3.71913L148.616 15.9948Z" fill="#F5F5F5"/>
</svg>
